:version 1.10
:name ASF
:units
  mass 1
  length 1
  angle deg
:documentation
  ASF file generated by Kaydara
:root
  axis xyz
  order  tx ty tz rx ry rz
  position 0 0 0
  orientation 0 0 0
:bonedata
  begin
    id 1
    name SpineDummy
    direction 0.999998 -0.00179978 1.38929e-006
    length 3.60008
    axis 0 0 0 xyz
  end
  begin
    id 2
    name Spine
    direction 0.964365 0.262802 0.0305839
    length 8.13928
    axis 1.33928 -1.75354 15.2838 xyz
    dof rx ry rz
  end
  begin
    id 3
    name Spine1
    direction 0.811168 0.572065 0.12144
    length 7.14954
    axis 2.2224 -6.9761 35.2157 xyz
    dof rx ry rz
  end
  begin
    id 4
    name Neck
    direction 0 0 0
    length 0
    axis 2.2224 -6.9761 35.2157 xyz
    dof rx ry rz
  end
  begin
    id 5
    name HeadDummy
    direction 0.810939 0.572387 0.121455
    length 3.55534
    axis 2.2224 -6.9761 35.2157 xyz
  end
  begin
    id 6
    name Head
    direction 0.998226 -0.000232542 0.0595419
    length 7.35666
    axis -3.03688 -3.41352 -0.0133467 xyz
    dof rx ry rz
  end
  begin
    id 7
    name R_ClavicleDummy
    direction 0.531669 -0.194489 -0.824319
    length 2.49392
    axis 2.2224 -6.9761 35.2157 xyz
  end
  begin
    id 8
    name R_Clavicle
    direction -0.155119 0.0480802 -0.986725
    length 4.485
    axis -54.2764 80.6538 162.779 xyz
    dof rx ry rz
  end
  begin
    id 9
    name R_UpperArm
    direction -0.955567 0.200068 -0.216484
    length 10.1122
    axis -72.9943 12.5026 168.175 xyz
    dof rx ry rz
  end
  begin
    id 10
    name R_Forearm
    direction -0.61433 0.385743 0.688332
    length 9.39148
    axis -117.015 -43.4982 147.875 xyz
    dof rx ry rz
  end
  begin
    id 11
    name R_Hand
    direction -0.699429 0.0170333 0.714499
    length 3.66324
    axis -45.0303 -36.7097 175.478 xyz
    dof rx ry rz
  end
  begin
    id 12
    name L_ClavicleDummy
    direction 0.40287 -0.36502 0.839319
    length 2.49392
    axis 2.2224 -6.9761 35.2157 xyz
  end
  begin
    id 13
    name L_Clavicle
    direction -0.231271 -0.0726419 0.970174
    length 4.485
    axis 18.4357 -75.9711 -162.563 xyz
    dof rx ry rz
  end
  begin
    id 14
    name L_UpperArm
    direction -0.917494 0.144359 0.370629
    length 10.1122
    axis 56.0417 -21.7544 171.058 xyz
    dof rx ry rz
  end
  begin
    id 15
    name L_Forearm
    direction -0.496786 0.615074 -0.612281
    length 9.39148
    axis 89.8094 37.7546 128.927 xyz
    dof rx ry rz
  end
  begin
    id 16
    name L_Hand
    direction -0.409932 0.64962 -0.640274
    length 3.66324
    axis -0.424369 32.133 128.52 xyz
    dof rx ry rz
  end
  begin
    id 17
    name L_ThighDummy
    direction -1.84081e-006 1.87549e-006 1
    length 3.13049
    axis 0 0 0 xyz
  end
  begin
    id 18
    name L_Thigh
    direction -0.947739 0.307978 0.083308
    length 17.9961
    axis 173.219 -4.77873 161.998 xyz
    dof rx ry rz
  end
  begin
    id 19
    name L_Calf
    direction -0.728814 -0.684427 0.0197583
    length 13.3367
    axis 167.331 -1.13214 -136.799 xyz
    dof rx ry rz
  end
  begin
    id 20
    name L_Foot
    direction -0.9028 0.418719 0.0981191
    length 5.8674
    axis 163.436 11.5135 -155.37 xyz
    dof rx ry rz
  end
  begin
    id 21
    name L_Toe0
    direction -0.35341 0.886259 0.299411
    length 4.75286
    axis 169.316 -17.4222 111.74 xyz
    dof rx ry rz
  end
  begin
    id 22
    name R_ThighDummy
    direction 9.32778e-007 -8.82053e-007 -1
    length 3.13049
    axis 0 0 0 xyz
  end
  begin
    id 23
    name R_Thigh
    direction -0.925064 0.37528 -0.0585023
    length 17.9961
    axis -178.698 3.35385 157.919 xyz
    dof rx ry rz
  end
  begin
    id 24
    name R_Calf
    direction -0.68969 -0.718776 -0.0876886
    length 13.3367
    axis -160.504 5.03065 -133.817 xyz
    dof rx ry rz
  end
  begin
    id 25
    name R_Foot
    direction -0.857405 0.418858 -0.299022
    length 5.8674
    axis -161.328 4.38911 -154.413 xyz
    dof rx ry rz
  end
  begin
    id 26
    name R_Toe0
    direction -0.100745 0.952789 -0.286433
    length 4.75286
    axis 171.683 16.6445 96.0359 xyz
    dof rx ry rz
  end
:hierarchy
  begin
    root SpineDummy L_ThighDummy R_ThighDummy
    SpineDummy Spine
    Spine Spine1
    Spine1 Neck
    Neck HeadDummy R_ClavicleDummy L_ClavicleDummy
    HeadDummy Head
    R_ClavicleDummy R_Clavicle
    R_Clavicle R_UpperArm
    R_UpperArm R_Forearm
    R_Forearm R_Hand
    L_ClavicleDummy L_Clavicle
    L_Clavicle L_UpperArm
    L_UpperArm L_Forearm
    L_Forearm L_Hand
    L_ThighDummy L_Thigh
    L_Thigh L_Calf
    L_Calf L_Foot
    L_Foot L_Toe0
    R_ThighDummy R_Thigh
    R_Thigh R_Calf
    R_Calf R_Foot
    R_Foot R_Toe0
  end

:SAMPLES-PER-SECOND 30
:FULLY-SPECIFIED
:DEGREES
411
root  8.62624 24.1133 16.1714 -4.82184 0.472338 77.2413
Spine  -21.081 -22.4675 -14.733
Spine1  -18.1224 46.5659 4.21299
Neck  3.97569e-016 0 -2.38542e-015
Head  -10.9061 -21.0352 18.2895
R_Clavicle  0.363618 -19.2768 0.00786586
R_UpperArm  24.0278 -21.5402 80.5672
R_Forearm  59.1178 36.7299 -38.3235
R_Hand  -0.0396494 0.310095 -1.4773
L_Clavicle  -0.345362 3.07898 2.28629
L_UpperArm  -39.1828 -56.7152 23.7664
L_Forearm  4.92246 36.3462 54.4434
L_Hand  -0.531503 0.696266 -9.63962
L_Thigh  -13.4151 -3.13784 -45.5292
L_Calf  -3.89097 1.20278 -9.01284
L_Foot  1.63543 -10.1221 34.2796
L_Toe0  0.225626 -0.60175 17.3198
R_Thigh  8.65806 9.73327 20.688
R_Calf  8.61898 -6.70963 -21.2443
R_Foot  -3.42911 -3.35767 16.0778
R_Toe0  -1.79192 -0.262708 -17.3258
412
root  9.11028 23.7342 16.7209 -10.3197 0.569814 78.9303
Spine  -19.6828 -17.0327 -11.2278
Spine1  -18.6265 46.8523 -0.726131
Neck  3.97569e-016 0 -2.38542e-015
Head  -10.7566 -20.2402 18.4238
R_Clavicle  0.359433 -17.3257 0.753841
R_UpperArm  24.2905 -16.2169 72.448
R_Forearm  41.0141 31.9944 -31.2865
R_Hand  1.10077 5.69442 0.578909
L_Clavicle  -0.382119 2.79753 2.61627
L_UpperArm  -42.5309 -49.7279 44.1644
L_Forearm  -1.74798 24.7884 31.6045
L_Hand  -0.780032 1.70714 -12.0277
L_Thigh  -17.1161 -6.77563 -42.6027
L_Calf  -2.95652 1.61838 -12.1064
L_Foot  1.58002 -10.227 34.3642
L_Toe0  1.84081 -1.51021 19.5843
R_Thigh  7.4949 10.2429 24.449
R_Calf  4.38427 -6.95908 -22.1007
R_Foot  -3.67456 -4.34151 14.9847
R_Toe0  -1.65022 -0.259223 -17.2453
413
root  9.97774 23.6197 17.5339 -15.1233 0.982256 81.4416
Spine  -16.3355 -10.5691 -6.56153
Spine1  -17.5398 47.1362 -5.80145
Neck  3.97569e-016 0 -2.38542e-015
Head  -12.9311 -20.4951 18.6045
R_Clavicle  0.348921 -16.3381 0.793602
R_UpperArm  24.3111 -7.0275 61.8388
R_Forearm  21.4859 24.9886 -22.8057
R_Hand  2.64103 11.5989 2.9804
L_Clavicle  -0.424249 3.02527 2.97923
L_UpperArm  -43.1659 -41.7363 53.6937
L_Forearm  1.51512 8.71891 10.244
L_Hand  -0.775348 1.28074 -12.7876
L_Thigh  -20.5876 -10.4285 -37.3442
L_Calf  -2.45483 2.0279 -15.1914
L_Foot  2.34316 -8.99471 34.3991
L_Toe0  3.63661 -2.48098 20.3533
R_Thigh  6.72504 10.1697 29.2265
R_Calf  -2.52834 -6.46789 -20.4774
R_Foot  -3.5749 -5.60341 11.3085
R_Toe0  -1.79974 -0.261004 -17.3302
414
root  11.1936 23.7381 18.4678 -18.836 1.65036 84.6601
Spine  -11.004 -2.69568 -1.51389
Spine1  -14.5453 45.409 -9.84991
Neck  3.97569e-016 0 -2.38542e-015
Head  -15.5273 -21.6089 17.3273
R_Clavicle  0.291376 -14.8056 0.230042
R_UpperArm  21.8243 2.83957 51.7094
R_Forearm  10.2119 13.1876 -11.2528
R_Hand  2.79822 14.7519 0.383422
L_Clavicle  -0.248012 3.58943 1.34873
L_UpperArm  -37.3334 -33.9302 54.446
L_Forearm  7.9448 -6.7805 -7.90446
L_Hand  -0.573117 0.319825 -10.9765
L_Thigh  -23.3102 -13.439 -29.7254
L_Calf  -2.81947 2.46161 -18.5177
L_Foot  3.49415 -7.01426 34.075
L_Toe0  5.40925 -3.30578 19.9525
R_Thigh  7.56678 9.36081 35.0964
R_Calf  -3.62553 -5.52854 -17.3462
R_Foot  -2.25309 -4.25986 6.56439
R_Toe0  -1.78853 -0.260066 -17.3239
415
root  12.5694 23.9008 19.4041 -22.2946 2.83477 88.1412
Spine  -4.51249 6.68252 4.4234
Spine1  -9.89699 38.6171 -11.8798
Neck  3.97569e-016 0 -2.38542e-015
Head  -17.2395 -22.0566 13.9262
R_Clavicle  0.156755 -12.2794 -0.763326
R_UpperArm  14.4903 12.0362 40.8518
R_Forearm  9.46381 -3.41799 3.06743
R_Hand  0.473813 16.0792 -12.2584
L_Clavicle  0.130676 3.13675 -1.9126
L_UpperArm  -25.2502 -25.8585 49.6534
L_Forearm  16.8443 -17.1144 -20.8405
L_Hand  -0.501702 0.326835 -9.61198
L_Thigh  -26.1206 -15.8806 -20.8718
L_Calf  -3.64159 2.88113 -21.7884
L_Foot  4.77166 -4.59872 33.237
L_Toe0  6.83693 -3.95807 19.6627
R_Thigh  9.80305 7.97603 40.5432
R_Calf  7.35034 -4.30004 -13.3672
R_Foot  -1.68992 -2.65076 6.49903
R_Toe0  -1.78849 -0.259476 -17.3239
